<svg width="42" height="42" viewBox="0 0 42 42" fill="none" xmlns="http://www.w3.org/2000/svg">
<path d="M29.75 38.5C28.2917 38.5 27.0521 37.9896 26.0312 36.9688C25.0104 35.9479 24.5 34.7083 24.5 33.25C24.5 33.075 24.5437 32.6667 24.6313 32.025L12.3375 24.85C11.8708 25.2875 11.3313 25.6305 10.7188 25.879C10.1062 26.1275 9.45 26.2512 8.75 26.25C7.29167 26.25 6.05208 25.7396 5.03125 24.7188C4.01042 23.6979 3.5 22.4583 3.5 21C3.5 19.5417 4.01042 18.3021 5.03125 17.2812C6.05208 16.2604 7.29167 15.75 8.75 15.75C9.45 15.75 10.1062 15.8743 10.7188 16.1228C11.3313 16.3713 11.8708 16.7137 12.3375 17.15L24.6313 9.975C24.5729 9.77083 24.5367 9.57425 24.5227 9.38525C24.5087 9.19625 24.5012 8.9845 24.5 8.75C24.5 7.29167 25.0104 6.05208 26.0312 5.03125C27.0521 4.01042 28.2917 3.5 29.75 3.5C31.2083 3.5 32.4479 4.01042 33.4688 5.03125C34.4896 6.05208 35 7.29167 35 8.75C35 10.2083 34.4896 11.4479 33.4688 12.4688C32.4479 13.4896 31.2083 14 29.75 14C29.05 14 28.3937 13.8758 27.7812 13.6273C27.1688 13.3787 26.6292 13.0363 26.1625 12.6L13.8688 19.775C13.9271 19.9792 13.9638 20.1763 13.979 20.3665C13.9942 20.5567 14.0012 20.7678 14 21C13.9988 21.2322 13.9918 21.4439 13.979 21.6353C13.9662 21.8266 13.9294 22.0232 13.8688 22.225L26.1625 29.4C26.6292 28.9625 27.1688 28.6201 27.7812 28.3727C28.3937 28.1254 29.05 28.0012 29.75 28C31.2083 28 32.4479 28.5104 33.4688 29.5312C34.4896 30.5521 35 31.7917 35 33.25C35 34.7083 34.4896 35.9479 33.4688 36.9688C32.4479 37.9896 31.2083 38.5 29.75 38.5Z" fill="#57A9FF"/>
</svg>
